<svg width="233" height="337" viewBox="0 0 233 337" fill="none" xmlns="http://www.w3.org/2000/svg">
<path d="M152.516 27.3441L84.1432 19.4856C62.2368 57.5829 50.0898 122.117 100.902 132.686L96.4524 171.399C95.8119 179.393 91.409 181.39 85.6331 183.23C82.4864 183.981 77.7552 183.994 74.7032 183.921C68.7215 183.679 67.0515 186.751 66.9642 188.317C66.4846 192.49 71.1663 193.715 73.5671 193.805L122.994 199.486C128.729 200.423 130.378 197.368 130.67 195.639C131.143 191.521 126.96 190.15 124.13 189.602C121.299 189.054 116.141 187.293 113.916 186.481C106.945 183.231 105.423 180.497 106.338 172.535L110.787 133.822C172.472 134.514 160.49 49.959 152.516 27.3441Z" fill="black"/>
<path d="M158.419 84.2352L65.8828 73.5996C62.305 104.729 73.3603 129.727 105.776 133.453C138.192 137.179 155.916 115.028 158.419 84.2352Z" fill="#003DFF" stroke="#003DFF"/>
<rect x="144.354" y="8.05103" width="4.67964" height="114.651" transform="rotate(23.1881 144.354 8.05103)" fill="#86E1ED"/>
<path d="M1 335.97C1.84594 321.227 9.55607 279.776 33.6291 231.92C40.7415 217.781 43.7803 198.566 68.0709 191.677C79.7932 189.865 108.603 183.629 130.066 173.188C131.236 172.457 132.972 171.348 134.779 170.152C141.74 165.403 149.764 151.345 152.906 144.91C160.737 126.347 166.03 143.823 164.215 153.974C165.728 151.293 167.16 147.639 166.321 144.91C165.16 141.14 164.87 133.913 164.87 130.771C164.87 121.345 174.659 123.157 177.922 144.91C180.186 160.006 169.825 176.21 163.42 182.615C173.281 176.524 178.285 166.663 182.273 159.049C182.273 144.547 184.085 137.296 185.173 135.121C190.249 130.045 195.324 134.396 194.962 149.623C194.599 164.85 193.874 165.212 191.336 174.638C189.306 182.18 174.78 196.98 167.771 203.438C173.371 202.498 179.789 200.965 186.986 198.566C212.001 190.228 229.766 178.989 231.579 187.69C233.754 193.491 186.986 219.231 173.209 219.231C163.541 220.923 143.118 230.47 130.066 230.47C107.951 230.47 101.498 231.195 95.9868 244.247C90.6695 259.594 82.3551 299.425 91.6363 335.97H1Z" fill="#F9C3E4"/>
<path d="M167.771 203.438C153.689 205.802 144.78 204.42 141.668 203.642C128.616 196.028 147.831 186.602 155.444 178.989C165.393 169.04 164.624 159.698 162.57 156.512M167.771 203.438C173.371 202.498 179.789 200.965 186.986 198.566C212.001 190.228 229.766 178.989 231.579 187.69C233.754 193.491 186.986 219.231 173.209 219.231C163.541 220.923 143.118 230.47 130.066 230.47C107.951 230.47 101.498 231.195 95.9868 244.247C90.6695 259.594 82.3551 299.425 91.6363 335.97H1C1.84594 321.227 9.55607 279.776 33.6291 231.92C40.7415 217.781 43.7803 198.566 68.0709 191.677C79.7932 189.865 108.603 183.629 130.066 173.188C131.236 172.457 132.972 171.348 134.779 170.152M167.771 203.438C174.78 196.98 189.306 182.18 191.336 174.638C193.874 165.212 194.599 164.85 194.962 149.623C195.324 134.396 190.249 130.045 185.173 135.121C184.085 137.296 182.273 144.547 182.273 159.049C178.285 166.663 173.281 176.524 163.42 182.615C169.825 176.21 180.186 160.006 177.922 144.91C174.659 123.157 164.87 121.345 164.87 130.771C164.87 133.913 165.16 141.14 166.321 144.91C167.16 147.639 165.728 151.293 164.215 153.974M162.57 156.512C162.379 156.215 162.176 155.971 161.97 155.785C156.894 150.71 148.556 159.185 141.668 165.212C140.283 166.423 137.453 168.383 134.779 170.152M162.57 156.512C163.049 155.878 163.638 154.996 164.215 153.974M164.215 153.974C166.03 143.823 160.737 126.347 152.906 144.91C149.764 151.345 141.74 165.403 134.779 170.152" stroke="#FF1EA7"/>
<path d="M152.393 171.324C146.941 171.982 144.637 166.234 144.96 163.689C144.698 163.158 148.948 159.706 151.105 158.047C159.895 151.142 162.736 156.498 163.058 160.038C161.442 163.689 157.892 170.66 152.393 171.324Z" fill="#003DFF" stroke="#003DFF"/>
</svg>
