<svg width="539" height="41" viewBox="0 0 539 41" fill="none" xmlns="http://www.w3.org/2000/svg">
<path d="M28.5743 0.612644V33.6012H20.39V8.10575H8.13706V33.6012H0V0.612644H28.5743Z" fill="white"/>
<path d="M35.2504 0.612644H48.4494C56.4446 0.612644 61.27 5.13678 61.27 12.4414C61.27 19.6046 56.4446 24.2701 48.4494 24.2701H43.3874V33.6012H35.2504V0.612644ZM43.2455 17.5782H47.5979C51.0514 17.5782 53.0857 15.6931 53.0857 12.5356C53.0857 9.33103 51.0514 7.4931 47.5979 7.4931H43.2455V17.5782Z" fill="white"/>
<path d="M94.1069 33.6012H85.7333L83.7464 28.2287H70.3581L68.4184 33.6012H59.9029L72.7235 0.612644H81.4283L94.1069 33.6012ZM82.0433 22.3851L77.1232 8.85977L72.1085 22.3851H82.0433Z" fill="white"/>
<path d="M119.322 16.4943C122.35 18.0966 124.242 21.0655 124.242 24.5529C124.242 29.9724 120.032 33.6012 113.882 33.6012H98.1282V0.612644H113.22C119.228 0.612644 123.202 4.1 123.202 9.33103C123.202 12.3471 121.877 14.7506 119.322 16.4943ZM115.632 10.3207C115.632 8.05862 114.024 6.5977 111.327 6.5977H105.887V14.0437H111.327C113.976 14.0437 115.632 12.5828 115.632 10.3207ZM105.887 27.6161H111.8C114.733 27.6161 116.437 26.1552 116.437 23.7046C116.437 21.3012 114.733 19.8402 111.8 19.8402H105.887V27.6161Z" fill="white"/>
<path d="M158.423 0.612644V26.108H163.627V41H156.2V33.6012H133.728V41H126.301V26.108H130.322C132.025 24.5057 133.019 22.008 133.444 16.0701L134.485 0.612644H158.423ZM150.333 7.91724H142.054L141.487 16.777C141.156 21.1598 140.304 24.2701 139.169 26.4379H150.333V7.91724Z" fill="white"/>
<path d="M199.627 33.6012H191.253L189.266 28.2287H175.878L173.939 33.6012H165.423L178.244 0.612644H186.948L199.627 33.6012ZM187.563 22.3851L182.643 8.85977L177.629 22.3851H187.563Z" fill="white"/>
<path d="M213.858 0.612644H235.147V8.05862H221.995V33.6012H213.858V0.612644Z" fill="white"/>
<path d="M239.96 18.7092L241.284 0.612644H265.885V33.6012H257.7V8.10575H248.759L247.955 20.0759C247.387 28.7943 243.461 32.8 235.229 33.9782L233.289 26.6736C238.351 25.4012 239.629 23.9402 239.96 18.7092Z" fill="white"/>
<path d="M304.038 33.6012H295.665L293.678 28.2287H280.289L278.35 33.6012H269.834L282.655 0.612644H291.36L304.038 33.6012ZM291.975 22.3851L287.055 8.85977L282.04 22.3851H291.975Z" fill="white"/>
<path d="M326.672 16.6356C329.841 18.3793 331.686 21.254 331.686 24.6C331.686 30.1138 327.381 34.0253 318.629 34.0253C313.757 34.0253 309.215 32.4701 305.383 29.5954L309.12 23.9402C311.77 25.9667 314.655 27.0035 318.062 27.0035C321.988 27.0035 323.786 25.6839 323.786 23.469C323.786 21.3483 322.083 20.123 319.197 20.123H312.668V13.5724H318.582C321.231 13.5724 322.698 12.3 322.698 10.2736C322.698 8.29426 320.995 7.06897 317.73 7.06897C315.034 7.06897 312.385 7.82299 309.499 9.94368L305.856 4.47701C309.593 1.6023 313.804 0.188506 318.44 0.188506C326.246 0.188506 330.551 3.77012 330.551 9.0954C330.551 12.1115 329.179 14.7506 326.672 16.6356Z" fill="white"/>
<path d="M367.332 33.6012H358.958L356.971 28.2287H343.583L341.643 33.6012H333.128L345.948 0.612644H354.653L367.332 33.6012ZM355.268 22.3851L350.348 8.85977L345.333 22.3851H355.268Z" fill="white"/>
<path d="M409.948 33.6012H400.392L392.302 20.5471H389.7V33.6012H381.563V0.612644H389.7V13.3368H392.302L400.108 0.612644H409.57L399.257 16.777L409.948 33.6012Z" fill="white"/>
<path d="M427.862 34.2138C417.69 34.2138 410.216 27.0035 410.216 17.1069C410.216 7.21035 417.69 0 427.862 0C438.128 0 445.508 7.21035 445.508 17.1069C445.508 27.0035 438.128 34.2138 427.862 34.2138ZM427.862 26.8149C433.349 26.8149 437.229 22.8092 437.229 17.1069C437.229 11.4046 433.349 7.39885 427.862 7.39885C422.421 7.39885 418.542 11.4046 418.542 17.1069C418.542 22.8092 422.421 26.8149 427.862 26.8149Z" fill="white"/>
<path d="M452.94 18.7092L454.265 0.612644H478.865V33.6012H470.681V8.10575H461.74L460.935 20.0759C460.368 28.7943 456.441 32.8 448.209 33.9782L446.27 26.6736C451.332 25.4012 452.609 23.9402 452.94 18.7092Z" fill="white"/>
<path d="M493.507 20.123V27.0506H508.645V33.6012H485.559V0.612644H508.078V7.06897H493.507V13.7609H506.848V20.123H493.507Z" fill="white"/>
<path d="M511.608 0.612644H539V8.05862H529.349V33.6012H521.212V8.05862H511.608V0.612644Z" fill="white"/>
</svg>
